<svg width="49" height="49" viewBox="0 0 49 49" fill="none" xmlns="http://www.w3.org/2000/svg">
<g clip-path="url(#clip0_1_497)">
<path d="M16.5 3.875L24.5 9.875L32.5 3.875" stroke="#3483FA" stroke-miterlimit="10"/>
<path d="M2.5 25.6751L10.7 19.8751L7.5 10.4751" stroke="#3483FA" stroke-miterlimit="10"/>
<path d="M18.9 45.6749L16 36.075L6 36.275" stroke="#3483FA" stroke-miterlimit="10"/>
<path d="M43 36.275L33 36.075L30.1 45.6749" stroke="#3483FA" stroke-miterlimit="10"/>
<path d="M41.5 10.4751L38.3 19.8751L46.5 25.6751" stroke="#3483FA" stroke-miterlimit="10"/>
<path d="M28.5 30.375H20.5L16.5 22.375L24.5 16.375L32.5 22.375L28.5 30.375Z" stroke="#3483FA" stroke-miterlimit="10" stroke-linecap="square"/>
<path d="M24.5 46.375C36.6503 46.375 46.5 36.5253 46.5 24.375C46.5 12.2247 36.6503 2.375 24.5 2.375C12.3497 2.375 2.5 12.2247 2.5 24.375C2.5 36.5253 12.3497 46.375 24.5 46.375Z" stroke="#3483FA" stroke-miterlimit="10" stroke-linecap="square"/>
</g>
<defs>
<clipPath id="clip0_1_497">
<rect width="48" height="48" fill="white" transform="translate(0.5 0.375)"/>
</clipPath>
</defs>
</svg>
