<svg width="49" height="49" viewBox="0 0 49 49" fill="none" xmlns="http://www.w3.org/2000/svg">
<g clip-path="url(#clip0_1_616)">
<path d="M46 9.97509L40.1 15.8751L33 8.77509L38.9 2.87509C37.5 2.47509 36.1 2.27509 34.5 2.37509C28.9 2.87509 24.4 7.87509 24.5 13.4751C24.5 14.5751 24.7 15.6751 25 16.6751L5.80001 33.6751C2.90001 36.1751 2.80001 40.6751 5.50001 43.3751C8.20001 46.0751 12.6 45.9751 15.2 43.0751L32.2 23.8751C33.9 24.3751 35.8 24.5751 37.8 24.1751C41.8 23.3751 45.1 20.3751 46.2 16.4751C46.7 14.1751 46.6 11.9751 46 9.97509Z" stroke="#3483FA" stroke-miterlimit="10" stroke-linecap="square"/>
</g>
<defs>
<clipPath id="clip0_1_616">
<rect width="48" height="48" fill="white" transform="translate(0.5 0.375)"/>
</clipPath>
</defs>
</svg>
