<svg width="49" height="49" viewBox="0 0 49 49" fill="none" xmlns="http://www.w3.org/2000/svg">
<g clip-path="url(#clip0_1_525)">
<path d="M24.5 32.375C18.977 32.375 14.5 27.898 14.5 22.375V12.375C14.5 6.852 18.977 2.375 24.5 2.375C30.023 2.375 34.5 6.852 34.5 12.375V22.375C34.5 27.898 30.023 32.375 24.5 32.375Z" stroke="#3483FA" stroke-miterlimit="10" stroke-linecap="square"/>
<path d="M14.5 46.375H34.5" stroke="#3483FA" stroke-miterlimit="10" stroke-linecap="square"/>
<path d="M24.5 38.375V46.375" stroke="#3483FA" stroke-miterlimit="10" stroke-linecap="square"/>
<path d="M40.5 22.375C40.5 31.212 33.337 38.375 24.5 38.375C15.663 38.375 8.5 31.212 8.5 22.375" stroke="#3483FA" stroke-miterlimit="10" stroke-linecap="square"/>
<path d="M14.5 14.375H19.5" stroke="#3483FA" stroke-miterlimit="10" stroke-linecap="square"/>
<path d="M14.5 21.375H19.5" stroke="#3483FA" stroke-miterlimit="10" stroke-linecap="square"/>
<path d="M29.5 14.375H34.5" stroke="#3483FA" stroke-miterlimit="10" stroke-linecap="square"/>
<path d="M29.5 21.375H34.5" stroke="#3483FA" stroke-miterlimit="10" stroke-linecap="square"/>
</g>
<defs>
<clipPath id="clip0_1_525">
<rect width="48" height="48" fill="white" transform="translate(0.5 0.375)"/>
</clipPath>
</defs>
</svg>
