<svg width="49" height="49" viewBox="0 0 49 49" fill="none" xmlns="http://www.w3.org/2000/svg">
<g clip-path="url(#clip0_1_556)">
<path d="M39 30.375C39.8284 30.375 40.5 29.7034 40.5 28.875C40.5 28.0466 39.8284 27.375 39 27.375C38.1716 27.375 37.5 28.0466 37.5 28.875C37.5 29.7034 38.1716 30.375 39 30.375Z" fill="#3483FA"/>
<path d="M35 34.375C35.8284 34.375 36.5 33.7034 36.5 32.875C36.5 32.0466 35.8284 31.375 35 31.375C34.1716 31.375 33.5 32.0466 33.5 32.875C33.5 33.7034 34.1716 34.375 35 34.375Z" fill="#3483FA"/>
<path d="M36.5 20.375H12.5C6.977 20.375 2.5 24.852 2.5 30.375C2.5 35.898 6.977 40.375 12.5 40.375C16.598 40.375 20.111 37.904 21.656 34.375H27.344C28.888 37.904 32.401 40.375 36.5 40.375C42.023 40.375 46.5 35.898 46.5 30.375C46.5 24.852 42.023 20.375 36.5 20.375Z" stroke="#3483FA" stroke-miterlimit="10" stroke-linecap="square"/>
<path d="M12.5 26.375V34.375" stroke="#3483FA" stroke-miterlimit="10" stroke-linecap="square"/>
<path d="M8.5 30.375H16.5" stroke="#3483FA" stroke-miterlimit="10" stroke-linecap="square"/>
<path d="M24.5 14.375V2.375" stroke="#3483FA" stroke-miterlimit="10" stroke-linecap="square"/>
</g>
<defs>
<clipPath id="clip0_1_556">
<rect width="48" height="48" fill="white" transform="translate(0.5 0.375)"/>
</clipPath>
</defs>
</svg>
