<svg width="49" height="49" viewBox="0 0 49 49" fill="none" xmlns="http://www.w3.org/2000/svg">
<g clip-path="url(#clip0_1_585)">
<path d="M24.5 46.375C35.5457 46.375 44.5 37.4207 44.5 26.375C44.5 15.3293 35.5457 6.375 24.5 6.375C13.4543 6.375 4.5 15.3293 4.5 26.375C4.5 37.4207 13.4543 46.375 24.5 46.375Z" stroke="#3483FA" stroke-miterlimit="10" stroke-linecap="square"/>
<path d="M24.5 33.375L27.5 29.375H21.5L24.5 33.375Z" stroke="#3483FA" stroke-miterlimit="10" stroke-linecap="square"/>
<path d="M24.5 33.375L27.5 29.375H21.5L24.5 33.375Z" fill="#3483FA"/>
<path d="M24.5 33.375V37.375" stroke="#3483FA" stroke-miterlimit="10" stroke-linecap="square"/>
<path d="M20.5 37.375H28.5" stroke="#3483FA" stroke-miterlimit="10" stroke-linecap="square"/>
<path d="M17.5 24.375C18.6046 24.375 19.5 23.4796 19.5 22.375C19.5 21.2704 18.6046 20.375 17.5 20.375C16.3954 20.375 15.5 21.2704 15.5 22.375C15.5 23.4796 16.3954 24.375 17.5 24.375Z" fill="#3483FA"/>
<path d="M31.5 24.375C32.6046 24.375 33.5 23.4796 33.5 22.375C33.5 21.2704 32.6046 20.375 31.5 20.375C30.3954 20.375 29.5 21.2704 29.5 22.375C29.5 23.4796 30.3954 24.375 31.5 24.375Z" fill="#3483FA"/>
<path d="M14.442 9.085C14.471 8.846 14.5 8.622 14.5 8.375C14.5 5.061 11.814 2.375 8.5 2.375C5.186 2.375 2.5 5.061 2.5 8.375C2.5 11.689 5.186 14.375 8.5 14.375" stroke="#3483FA" stroke-miterlimit="10"/>
<path d="M34.558 9.085C34.529 8.846 34.5 8.622 34.5 8.375C34.5 5.061 37.186 2.375 40.5 2.375C43.814 2.375 46.5 5.061 46.5 8.375C46.5 11.689 43.814 14.375 40.5 14.375" stroke="#3483FA" stroke-miterlimit="10"/>
</g>
<defs>
<clipPath id="clip0_1_585">
<rect width="48" height="48" fill="white" transform="translate(0.5 0.375)"/>
</clipPath>
</defs>
</svg>
